<?xml version="1.0" encoding="iso-8859-1"?>
<!-- Generator: Adobe Illustrator 16.0.0, SVG Export Plug-In . SVG Version: 6.00 Build 0)  -->
<!DOCTYPE svg PUBLIC "-//W3C//DTD SVG 1.1//EN" "http://www.w3.org/Graphics/SVG/1.1/DTD/svg11.dtd">
<svg version="1.1" id="Capa_1" xmlns="http://www.w3.org/2000/svg" xmlns:xlink="http://www.w3.org/1999/xlink" x="0px" y="0px"
	 width="136.05px" height="136.051px" viewBox="0 0 136.05 136.051" style="enable-background:new 0 0 136.05 136.051;"
	 xml:space="preserve">
<g>
	<g>
		<g>
			<path d="M131.572,75.603v-3.38c0-8.347-6.031-12.944-16.976-12.944H96.079l-3.07-10.317c-2.883-9.745-11.815-14.185-18.9-14.185
				h-26.05c-3.916,0-6.265,1.229-7.393,3.868l-24.57,18.591c-0.796-3.709-4.134-6.453-7.963-6.453C3.649,50.782,0,54.43,0,58.917
				v16.159c0,4.149,3.167,7.644,7.264,8.086v6.479h10.769c0.771,6.542,6.334,11.634,13.079,11.634
				c6.738,0,12.304-5.096,13.073-11.634H94.81c0.799,6.506,6.347,11.565,13.062,11.565c6.725,0,12.272-5.06,13.07-11.565h15.108
				V75.603H131.572L131.572,75.603z M31.108,95.909c-4.305,0-7.801-3.504-7.801-7.811c0-4.302,3.499-7.797,7.801-7.797
				c4.303,0,7.802,3.495,7.802,7.797C38.913,92.405,35.414,95.909,31.108,95.909z M41.604,61.019H19.986l21.553-16.302l0.042,2.28
				c0.014,0.722,0.025,1.462,0.025,2.216v11.806H41.604z M46.572,61.019V48.861c-0.002-2.073-0.005-4.034,0.65-5.519
				c0.785-1.78,2.377-2.645,4.866-2.645h22.021c4.925,0,12.227,3.576,12.227,8.516l0.506,2.81l1.818,8.996H46.572z M107.872,95.841
				c-4.307,0-7.801-3.499-7.801-7.806c0-4.305,3.494-7.802,7.801-7.802s7.806,3.497,7.806,7.802
				C115.677,92.342,112.178,95.841,107.872,95.841z"/>
		</g>
		<g>
			<path d="M107.872,82.897c-2.833,0-5.137,2.307-5.137,5.138c0,2.833,2.304,5.142,5.137,5.142c2.838,0,5.142-2.309,5.142-5.142
				C113.013,85.204,110.705,82.897,107.872,82.897z"/>
		</g>
		<g>
			<path d="M31.108,83.443c-2.571,0-4.659,2.092-4.659,4.655c0,2.573,2.09,4.667,4.659,4.667c2.569,0,4.658-2.094,4.658-4.667
				C35.766,85.535,33.678,83.443,31.108,83.443z"/>
		</g>
	</g>
</g>
<g>
</g>
<g>
</g>
<g>
</g>
<g>
</g>
<g>
</g>
<g>
</g>
<g>
</g>
<g>
</g>
<g>
</g>
<g>
</g>
<g>
</g>
<g>
</g>
<g>
</g>
<g>
</g>
<g>
</g>
</svg>
